# xmcd
#
# Track frame offsets:
#	150
#	20356
#	34791
#	50589
#	70302
#	83216
#	99677
#	111881
#	131430
#	153901
#	170745
#	187101
#	206923
#	223571
#	244654
#	262784
#	282166
#	303387
#	320354
#
# Disc length: 4509 seconds
#
# Revision: 29
# Processed by: cddbd v1.5.2PL0 Copyright (c) Steve Scherf et al.
# Submitted via: audiograbber 1.83.01
#
DISCID=11119b13
DTITLE=Fleetwood Mac - The Very Best Of Fleetwood Mac CD 2
DYEAR=2009
DGENRE=Rock
TTITLE0=The Chain
TTITLE1=Don't Stop
TTITLE2=What Makes You Think You're The One
TTITLE3=Gypsy
TTITLE4=Second Hand News
TTITLE5=Little Lies
TTITLE6=Think About Me
TTITLE7=Go Insane
TTITLE8=Gold Dust Women
TTITLE9=Hold Me
TTITLE10=Seven Wonders
TTITLE11=World Turning
TTITLE12=Everywhere
TTITLE13=Sisters Of The Moon
TTITLE14=Family Man
TTITLE15=As Long As You Follow
TTITLE16=No Questions Asked
TTITLE17=Skies The Limit
TTITLE18=Paper Doll
EXTD=YEAR: 2002
EXTT0=
EXTT1=
EXTT2=
EXTT3=
EXTT4=
EXTT5=
EXTT6=
EXTT7=
EXTT8=
EXTT9=
EXTT10=
EXTT11=
EXTT12=
EXTT13=
EXTT14=
EXTT15=
EXTT16=
EXTT17=
EXTT18=
PLAYORDER=
